<svg width="32" height="32" viewBox="0 0 32 32" xmlns="http://www.w3.org/2000/svg">
  <defs>
    <linearGradient id="btcGradient" x1="0%" y1="0%" x2="100%" y2="100%">
      <stop offset="0%" style="stop-color:#F7931A;stop-opacity:1" />
      <stop offset="100%" style="stop-color:#FFC84A;stop-opacity:1" />
    </linearGradient>
    <filter id="glow">
      <feGaussianBlur stdDeviation="2" result="coloredBlur"/>
      <feMerge>
        <feMergeNode in="coloredBlur"/>
        <feMergeNode in="SourceGraphic"/>
      </feMerge>
    </filter>
  </defs>
  
  <!-- Outer circle with gradient -->
  <circle cx="16" cy="16" r="15" fill="url(#btcGradient)" filter="url(#glow)"/>
  
  <!-- Bitcoin B symbol -->
  <path d="M21.75 13.5c.5-2-1.25-3.25-3.25-3.75l.75-3-1.75-.5-.75 2.75c-.5-.125-.975-.225-1.475-.35l.725-2.85-1.75-.5-.75 3c-.375-.1-.75-.2-1.125-.3l-2.425-.6-.5 1.875s1.3.3 1.275.325c.7.175.825.625.8 1l-.8 3.2c.05.025.125.05.2.075l-.2-.05-.125.5-.975 3.875c-.075.175-.25.45-.675.35.025.025-1.275-.325-1.275-.325l-.875 2 2.3.575c.425.1.85.225 1.275.325l-.75 3.025 1.75.425.75-3c.5.125 1 .25 1.475.375l-.75 2.975 1.75.425.75-3c3.125.6 5.475.35 6.475-2.475.8-2.275-.025-3.575-1.7-4.425 1.2-.275 2.125-1.075 2.375-2.725zm-4.25 5.975c-.575 2.3-4.425 1.05-5.675.75l1-4.05c1.25.325 5.275.925 4.675 3.3zm.575-6c-.525 2.1-3.75.975-4.8.725l.925-3.675c1.05.25 4.425.75 3.875 2.95z" fill="white"/>
</svg>